<?xml version="1.0" encoding="UTF-8"?>
<svg id="Layer_1" data-name="Layer 1" xmlns="http://www.w3.org/2000/svg" viewBox="0 0 1920 1080">
  <defs>
    <style>
      .cls-1 {
        fill: #383838;
        stroke-width: 5px;
      }

      .cls-1, .cls-2, .cls-3, .cls-4, .cls-5, .cls-6 {
        stroke-miterlimit: 10;
      }

      .cls-1, .cls-2, .cls-4, .cls-5, .cls-6 {
        stroke: #000;
      }

      .cls-3 {
        fill: #fe6979;
        stroke: #c92d3e;
        stroke-width: 10px;
      }

      .cls-4 {
        fill: #0794d7;
      }

      .cls-5, .cls-6 {
        fill: #f2f2f2;
      }

      .cls-6 {
        stroke-width: 3px;
      }
    </style>
  </defs>
  <polygon class="cls-2" points="1331.84 274.07 898.82 24.07 465.81 274.07 465.81 774.07 898.82 1024.07 1331.84 774.07 1331.84 274.07"/>
  <polyline class="cls-4" points="1306.53 548.5 1306.53 289.5 899.5 54.5 492.47 289.5 492.47 499.5"/>
  <polyline class="cls-5" points="492.47 499.5 492.47 759.5 899.5 994.5 1306.53 759.5 1306.53 548.5"/>
  <path class="cls-1" d="m1306.5,499.5h-336.28c-10.3-29.13-38.06-50-70.72-50s-60.42,20.87-70.72,50h-336.28v49h335.95c10.01,29.65,38.03,51,71.05,51s61.04-21.35,71.05-51h335.95v-49Z"/>
  <circle class="cls-6" cx="899.75" cy="524.25" r="50.25"/>
  <polyline class="cls-3" points="743.4 144.63 800.5 270.5 709.5 309.5 649.22 199"/>
  <polyline class="cls-3" points="1052.1 143.34 995 269.21 1086 308.21 1146.28 197.71"/>
</svg>